# xmcd
#
# Track frame offsets: 
#        187
#        28477
#        44307
#        64360
#        88082
#        110050
#        123237
#        146717
#        161620
#        175347
#
# Disc length: 2632 seconds
#
# Revision: 2
# Processed by: cddbd v1.5.1PL0 Copyright (c) Steve Scherf et al.
# Submitted via: ExactAudioCopy v0.95a5
#
DISCID=950a460a
DTITLE=Newsong - Living Proof
DYEAR=1990
DGENRE=Contemporary Christian
TTITLE0=Living Proof
TTITLE1=How Will They Know
TTITLE2=Wholehearted
TTITLE3=Turn It Around
TTITLE4=Only The Hands
TTITLE5=Fight Back
TTITLE6=Bellwether
TTITLE7=Tug O' War
TTITLE8=One Heart At A Time
TTITLE9=When Everything Else Is Gone
EXTD=
EXTT0=
EXTT1=
EXTT2=
EXTT3=
EXTT4=
EXTT5=
EXTT6=
EXTT7=
EXTT8=
EXTT9=
PLAYORDER=
